<svg xmlns="http://www.w3.org/2000/svg" xmlns:xlink="http://www.w3.org/1999/xlink" width="300" zoomAndPan="magnify" viewBox="0 0 187.5 187.499992" height="300" preserveAspectRatio="xMidYMid meet" version="1.0"><defs><clipPath id="93493a7e1b"><path d="M 3 7 L 185 7 L 185 184.578125 L 3 184.578125 Z M 3 7 " clip-rule="nonzero"/></clipPath></defs><g clip-path="url(#93493a7e1b)"><path fill="#2a364e" d="M 138.507812 156.429688 C 138.507812 171.960938 125.941406 184.539062 110.425781 184.539062 C 95.648438 184.539062 83.527344 173.132812 82.425781 158.621094 C 85.164062 159.511719 88.09375 160 91.148438 160 C 106.667969 160 119.234375 147.421875 119.234375 131.890625 C 119.234375 131.148438 119.210938 130.425781 119.148438 129.703125 C 130.398438 133.378906 138.507812 143.960938 138.507812 156.429688 Z M 110.425781 128.324219 C 113.460938 128.324219 116.410156 128.8125 119.148438 129.703125 C 118.023438 115.191406 105.921875 103.78125 91.148438 103.78125 C 75.632812 103.78125 63.066406 116.359375 63.066406 131.890625 C 63.066406 144.363281 71.195312 154.945312 82.425781 158.621094 C 82.363281 157.898438 82.339844 157.175781 82.339844 156.429688 C 82.339844 140.902344 94.929688 128.324219 110.425781 128.324219 Z M 38.019531 39.066406 C 39.460938 36.367188 41.265625 34.03125 43.347656 32.011719 C 30.035156 26.167969 14.265625 31.460938 7.300781 44.503906 C 0 58.1875 5.160156 75.226562 18.828125 82.558594 C 29.824219 88.441406 42.964844 86.253906 51.496094 78.074219 C 50.839844 77.777344 50.179688 77.457031 49.523438 77.117188 C 35.851562 69.789062 30.695312 52.75 38.019531 39.066406 Z M 87.542969 65.5625 C 94.84375 51.878906 89.683594 34.839844 76.015625 27.507812 C 65.019531 21.621094 51.878906 23.8125 43.347656 31.992188 C 44.003906 32.289062 44.660156 32.605469 45.320312 32.949219 C 58.992188 40.257812 64.167969 57.296875 56.847656 71 C 55.402344 73.699219 53.597656 76.035156 51.519531 78.054688 C 64.808594 83.917969 80.578125 78.605469 87.542969 65.5625 Z M 179.304688 19.5 C 170.6875 6.582031 153.238281 3.117188 140.355469 11.742188 C 129.996094 18.667969 125.707031 31.3125 128.914062 42.699219 C 129.484375 42.253906 130.082031 41.828125 130.675781 41.402344 C 143.582031 32.777344 161.007812 36.242188 169.625 49.160156 C 171.324219 51.6875 172.535156 54.40625 173.320312 57.191406 C 184.742188 48.203125 187.5 31.777344 179.304688 19.5 Z M 132.585938 50.730469 C 130.886719 48.203125 129.675781 45.484375 128.890625 42.699219 C 117.472656 51.6875 114.710938 68.109375 122.90625 80.410156 C 131.523438 93.328125 148.972656 96.792969 161.859375 88.167969 C 172.214844 81.242188 176.503906 68.597656 173.300781 57.210938 C 172.726562 57.65625 172.132812 58.082031 171.539062 58.507812 C 158.652344 67.113281 141.203125 63.628906 132.585938 50.730469 Z M 132.585938 50.730469 " fill-opacity="1" fill-rule="nonzero"/></g></svg>