<svg xmlns="http://www.w3.org/2000/svg" xmlns:xlink="http://www.w3.org/1999/xlink" width="500" zoomAndPan="magnify" viewBox="0 0 375 374.999991" height="300" preserveAspectRatio="xMidYMid meet" version="1.0"><defs><g/></defs><g fill="#ffffff" fill-opacity="1"><g transform="translate(0.0000045, 177.33228)"><g><path d="M 31.390625 -24.171875 C 34.046875 -23.671875 36.226562 -22.34375 37.9375 -20.1875 C 39.65625 -18.03125 40.515625 -15.554688 40.515625 -12.765625 C 40.515625 -10.242188 39.894531 -8.023438 38.65625 -6.109375 C 37.414062 -4.191406 35.625 -2.691406 33.28125 -1.609375 C 30.945312 -0.535156 28.179688 0 24.984375 0 L 4.65625 0 L 4.65625 -47.125 L 24.109375 -47.125 C 27.296875 -47.125 30.046875 -46.601562 32.359375 -45.5625 C 34.679688 -44.53125 36.4375 -43.09375 37.625 -41.25 C 38.820312 -39.40625 39.421875 -37.3125 39.421875 -34.96875 C 39.421875 -32.226562 38.691406 -29.929688 37.234375 -28.078125 C 35.773438 -26.234375 33.828125 -24.929688 31.390625 -24.171875 Z M 14.109375 -27.6875 L 22.75 -27.6875 C 25 -27.6875 26.734375 -28.191406 27.953125 -29.203125 C 29.171875 -30.210938 29.78125 -31.664062 29.78125 -33.5625 C 29.78125 -35.445312 29.171875 -36.90625 27.953125 -37.9375 C 26.734375 -38.976562 25 -39.5 22.75 -39.5 L 14.109375 -39.5 Z M 23.625 -7.703125 C 25.925781 -7.703125 27.71875 -8.238281 29 -9.3125 C 30.28125 -10.394531 30.921875 -11.925781 30.921875 -13.90625 C 30.921875 -15.9375 30.242188 -17.523438 28.890625 -18.671875 C 27.546875 -19.816406 25.722656 -20.390625 23.421875 -20.390625 L 14.109375 -20.390625 L 14.109375 -7.703125 Z M 23.625 -7.703125 "/></g></g></g><g fill="#ffffff" fill-opacity="1"><g transform="translate(41.721885, 177.33228)"><g><path d="M 9.453125 -41.859375 C 7.785156 -41.859375 6.398438 -42.382812 5.296875 -43.4375 C 4.191406 -44.5 3.640625 -45.816406 3.640625 -47.390625 C 3.640625 -48.972656 4.191406 -50.289062 5.296875 -51.34375 C 6.398438 -52.40625 7.785156 -52.9375 9.453125 -52.9375 C 11.117188 -52.9375 12.503906 -52.40625 13.609375 -51.34375 C 14.710938 -50.289062 15.265625 -48.972656 15.265625 -47.390625 C 15.265625 -45.816406 14.710938 -44.5 13.609375 -43.4375 C 12.503906 -42.382812 11.117188 -41.859375 9.453125 -41.859375 Z M 14.109375 -37.40625 L 14.109375 0 L 4.65625 0 L 4.65625 -37.40625 Z M 14.109375 -37.40625 "/></g></g></g><g fill="#ffffff" fill-opacity="1"><g transform="translate(58.801981, 177.33228)"><g><path d="M 39.421875 -19.515625 C 39.421875 -18.160156 39.332031 -16.941406 39.15625 -15.859375 L 11.8125 -15.859375 C 12.039062 -13.160156 12.988281 -11.046875 14.65625 -9.515625 C 16.320312 -7.984375 18.367188 -7.21875 20.796875 -7.21875 C 24.304688 -7.21875 26.800781 -8.726562 28.28125 -11.75 L 38.484375 -11.75 C 37.398438 -8.144531 35.328125 -5.179688 32.265625 -2.859375 C 29.210938 -0.546875 25.457031 0.609375 21 0.609375 C 17.394531 0.609375 14.160156 -0.1875 11.296875 -1.78125 C 8.441406 -3.382812 6.21875 -5.648438 4.625 -8.578125 C 3.03125 -11.503906 2.234375 -14.878906 2.234375 -18.703125 C 2.234375 -22.578125 3.019531 -25.972656 4.59375 -28.890625 C 6.164062 -31.816406 8.367188 -34.066406 11.203125 -35.640625 C 14.046875 -37.222656 17.3125 -38.015625 21 -38.015625 C 24.550781 -38.015625 27.734375 -37.25 30.546875 -35.71875 C 33.359375 -34.1875 35.539062 -32.015625 37.09375 -29.203125 C 38.644531 -26.390625 39.421875 -23.160156 39.421875 -19.515625 Z M 29.640625 -22.21875 C 29.597656 -24.644531 28.71875 -26.585938 27 -28.046875 C 25.289062 -29.515625 23.203125 -30.25 20.734375 -30.25 C 18.390625 -30.25 16.414062 -29.539062 14.8125 -28.125 C 13.21875 -26.707031 12.238281 -24.738281 11.875 -22.21875 Z M 29.640625 -22.21875 "/></g></g></g><g fill="#ffffff" fill-opacity="1"><g transform="translate(98.768553, 177.33228)"><g><path d="M 25.390625 -37.9375 C 29.835938 -37.9375 33.4375 -36.53125 36.1875 -33.71875 C 38.9375 -30.90625 40.3125 -26.976562 40.3125 -21.9375 L 40.3125 0 L 30.859375 0 L 30.859375 -20.65625 C 30.859375 -23.625 30.113281 -25.90625 28.625 -27.5 C 27.144531 -29.101562 25.117188 -29.90625 22.546875 -29.90625 C 19.941406 -29.90625 17.882812 -29.101562 16.375 -27.5 C 14.863281 -25.90625 14.109375 -23.625 14.109375 -20.65625 L 14.109375 0 L 4.65625 0 L 4.65625 -37.40625 L 14.109375 -37.40625 L 14.109375 -32.75 C 15.367188 -34.363281 16.976562 -35.628906 18.9375 -36.546875 C 20.894531 -37.472656 23.046875 -37.9375 25.390625 -37.9375 Z M 25.390625 -37.9375 "/></g></g></g><g fill="#ffffff" fill-opacity="1"><g transform="translate(141.705649, 177.33228)"><g><path d="M 20.25 -8.703125 L 29.703125 -37.40625 L 39.765625 -37.40625 L 25.921875 0 L 14.453125 0 L 0.671875 -37.40625 L 10.796875 -37.40625 Z M 20.25 -8.703125 "/></g></g></g><g fill="#ffffff" fill-opacity="1"><g transform="translate(180.457013, 177.33228)"><g><path d="M 39.421875 -19.515625 C 39.421875 -18.160156 39.332031 -16.941406 39.15625 -15.859375 L 11.8125 -15.859375 C 12.039062 -13.160156 12.988281 -11.046875 14.65625 -9.515625 C 16.320312 -7.984375 18.367188 -7.21875 20.796875 -7.21875 C 24.304688 -7.21875 26.800781 -8.726562 28.28125 -11.75 L 38.484375 -11.75 C 37.398438 -8.144531 35.328125 -5.179688 32.265625 -2.859375 C 29.210938 -0.546875 25.457031 0.609375 21 0.609375 C 17.394531 0.609375 14.160156 -0.1875 11.296875 -1.78125 C 8.441406 -3.382812 6.21875 -5.648438 4.625 -8.578125 C 3.03125 -11.503906 2.234375 -14.878906 2.234375 -18.703125 C 2.234375 -22.578125 3.019531 -25.972656 4.59375 -28.890625 C 6.164062 -31.816406 8.367188 -34.066406 11.203125 -35.640625 C 14.046875 -37.222656 17.3125 -38.015625 21 -38.015625 C 24.550781 -38.015625 27.734375 -37.25 30.546875 -35.71875 C 33.359375 -34.1875 35.539062 -32.015625 37.09375 -29.203125 C 38.644531 -26.390625 39.421875 -23.160156 39.421875 -19.515625 Z M 29.640625 -22.21875 C 29.597656 -24.644531 28.71875 -26.585938 27 -28.046875 C 25.289062 -29.515625 23.203125 -30.25 20.734375 -30.25 C 18.390625 -30.25 16.414062 -29.539062 14.8125 -28.125 C 13.21875 -26.707031 12.238281 -24.738281 11.875 -22.21875 Z M 29.640625 -22.21875 "/></g></g></g><g fill="#ffffff" fill-opacity="1"><g transform="translate(220.42359, 177.33228)"><g><path d="M 25.390625 -37.9375 C 29.835938 -37.9375 33.4375 -36.53125 36.1875 -33.71875 C 38.9375 -30.90625 40.3125 -26.976562 40.3125 -21.9375 L 40.3125 0 L 30.859375 0 L 30.859375 -20.65625 C 30.859375 -23.625 30.113281 -25.90625 28.625 -27.5 C 27.144531 -29.101562 25.117188 -29.90625 22.546875 -29.90625 C 19.941406 -29.90625 17.882812 -29.101562 16.375 -27.5 C 14.863281 -25.90625 14.109375 -23.625 14.109375 -20.65625 L 14.109375 0 L 4.65625 0 L 4.65625 -37.40625 L 14.109375 -37.40625 L 14.109375 -32.75 C 15.367188 -34.363281 16.976562 -35.628906 18.9375 -36.546875 C 20.894531 -37.472656 23.046875 -37.9375 25.390625 -37.9375 Z M 25.390625 -37.9375 "/></g></g></g><g fill="#ffffff" fill-opacity="1"><g transform="translate(263.360675, 177.33228)"><g><path d="M 9.453125 -41.859375 C 7.785156 -41.859375 6.398438 -42.382812 5.296875 -43.4375 C 4.191406 -44.5 3.640625 -45.816406 3.640625 -47.390625 C 3.640625 -48.972656 4.191406 -50.289062 5.296875 -51.34375 C 6.398438 -52.40625 7.785156 -52.9375 9.453125 -52.9375 C 11.117188 -52.9375 12.503906 -52.40625 13.609375 -51.34375 C 14.710938 -50.289062 15.265625 -48.972656 15.265625 -47.390625 C 15.265625 -45.816406 14.710938 -44.5 13.609375 -43.4375 C 12.503906 -42.382812 11.117188 -41.859375 9.453125 -41.859375 Z M 14.109375 -37.40625 L 14.109375 0 L 4.65625 0 L 4.65625 -37.40625 Z M 14.109375 -37.40625 "/></g></g></g><g fill="#ffffff" fill-opacity="1"><g transform="translate(280.440775, 177.33228)"><g><path d="M 2.234375 -18.84375 C 2.234375 -22.625 2.984375 -25.972656 4.484375 -28.890625 C 5.992188 -31.816406 8.050781 -34.066406 10.65625 -35.640625 C 13.269531 -37.222656 16.175781 -38.015625 19.375 -38.015625 C 21.800781 -38.015625 24.117188 -37.484375 26.328125 -36.421875 C 28.535156 -35.367188 30.289062 -33.960938 31.59375 -32.203125 L 31.59375 -49.96875 L 41.1875 -49.96875 L 41.1875 0 L 31.59375 0 L 31.59375 -5.53125 C 30.425781 -3.6875 28.785156 -2.203125 26.671875 -1.078125 C 24.554688 0.046875 22.101562 0.609375 19.3125 0.609375 C 16.15625 0.609375 13.269531 -0.195312 10.65625 -1.8125 C 8.050781 -3.4375 5.992188 -5.722656 4.484375 -8.671875 C 2.984375 -11.617188 2.234375 -15.007812 2.234375 -18.84375 Z M 31.671875 -18.703125 C 31.671875 -20.992188 31.21875 -22.960938 30.3125 -24.609375 C 29.414062 -26.253906 28.203125 -27.515625 26.671875 -28.390625 C 25.140625 -29.265625 23.492188 -29.703125 21.734375 -29.703125 C 19.984375 -29.703125 18.363281 -29.273438 16.875 -28.421875 C 15.394531 -27.566406 14.191406 -26.316406 13.265625 -24.671875 C 12.335938 -23.035156 11.875 -21.09375 11.875 -18.84375 C 11.875 -16.59375 12.335938 -14.617188 13.265625 -12.921875 C 14.191406 -11.234375 15.40625 -9.941406 16.90625 -9.046875 C 18.414062 -8.148438 20.023438 -7.703125 21.734375 -7.703125 C 23.492188 -7.703125 25.140625 -8.140625 26.671875 -9.015625 C 28.203125 -9.890625 29.414062 -11.148438 30.3125 -12.796875 C 31.21875 -14.441406 31.671875 -16.410156 31.671875 -18.703125 Z M 31.671875 -18.703125 "/></g></g></g><g fill="#ffffff" fill-opacity="1"><g transform="translate(324.525565, 177.33228)"><g><path d="M 21.265625 0.609375 C 17.660156 0.609375 14.414062 -0.1875 11.53125 -1.78125 C 8.65625 -3.382812 6.394531 -5.648438 4.75 -8.578125 C 3.113281 -11.503906 2.296875 -14.878906 2.296875 -18.703125 C 2.296875 -22.523438 3.140625 -25.898438 4.828125 -28.828125 C 6.515625 -31.753906 8.820312 -34.015625 11.75 -35.609375 C 14.675781 -37.210938 17.9375 -38.015625 21.53125 -38.015625 C 25.132812 -38.015625 28.398438 -37.210938 31.328125 -35.609375 C 34.253906 -34.015625 36.5625 -31.753906 38.25 -28.828125 C 39.9375 -25.898438 40.78125 -22.523438 40.78125 -18.703125 C 40.78125 -14.878906 39.910156 -11.503906 38.171875 -8.578125 C 36.441406 -5.648438 34.101562 -3.382812 31.15625 -1.78125 C 28.207031 -0.1875 24.910156 0.609375 21.265625 0.609375 Z M 21.265625 -7.625 C 22.972656 -7.625 24.582031 -8.039062 26.09375 -8.875 C 27.601562 -9.707031 28.804688 -10.957031 29.703125 -12.625 C 30.609375 -14.289062 31.0625 -16.316406 31.0625 -18.703125 C 31.0625 -22.253906 30.125 -24.988281 28.25 -26.90625 C 26.382812 -28.820312 24.101562 -29.78125 21.40625 -29.78125 C 18.695312 -29.78125 16.429688 -28.820312 14.609375 -26.90625 C 12.785156 -24.988281 11.875 -22.253906 11.875 -18.703125 C 11.875 -15.148438 12.765625 -12.414062 14.546875 -10.5 C 16.328125 -8.582031 18.566406 -7.625 21.265625 -7.625 Z M 21.265625 -7.625 "/></g></g></g><g fill="#ffffff" fill-opacity="1"><g transform="translate(0.100964, 244.167699)"><g><path d="M 33.5625 -8.984375 L 14.78125 -8.984375 L 11.6875 0 L 1.75 0 L 18.703125 -47.1875 L 29.703125 -47.1875 L 46.65625 0 L 36.65625 0 Z M 30.984375 -16.546875 L 24.171875 -36.25 L 17.34375 -16.546875 Z M 30.984375 -16.546875 "/></g></g></g><g fill="#ffffff" fill-opacity="1"><g transform="translate(46.751196, 244.167699)"><g/></g></g><g fill="#ffffff" fill-opacity="1"><g transform="translate(61.130819, 244.167699)"><g><path d="M 31.390625 -24.171875 C 34.046875 -23.671875 36.226562 -22.34375 37.9375 -20.1875 C 39.65625 -18.03125 40.515625 -15.554688 40.515625 -12.765625 C 40.515625 -10.242188 39.894531 -8.023438 38.65625 -6.109375 C 37.414062 -4.191406 35.625 -2.691406 33.28125 -1.609375 C 30.945312 -0.535156 28.179688 0 24.984375 0 L 4.65625 0 L 4.65625 -47.125 L 24.109375 -47.125 C 27.296875 -47.125 30.046875 -46.601562 32.359375 -45.5625 C 34.679688 -44.53125 36.4375 -43.09375 37.625 -41.25 C 38.820312 -39.40625 39.421875 -37.3125 39.421875 -34.96875 C 39.421875 -32.226562 38.691406 -29.929688 37.234375 -28.078125 C 35.773438 -26.234375 33.828125 -24.929688 31.390625 -24.171875 Z M 14.109375 -27.6875 L 22.75 -27.6875 C 25 -27.6875 26.734375 -28.191406 27.953125 -29.203125 C 29.171875 -30.210938 29.78125 -31.664062 29.78125 -33.5625 C 29.78125 -35.445312 29.171875 -36.90625 27.953125 -37.9375 C 26.734375 -38.976562 25 -39.5 22.75 -39.5 L 14.109375 -39.5 Z M 23.625 -7.703125 C 25.925781 -7.703125 27.71875 -8.238281 29 -9.3125 C 30.28125 -10.394531 30.921875 -11.925781 30.921875 -13.90625 C 30.921875 -15.9375 30.242188 -17.523438 28.890625 -18.671875 C 27.546875 -19.816406 25.722656 -20.390625 23.421875 -20.390625 L 14.109375 -20.390625 L 14.109375 -7.703125 Z M 23.625 -7.703125 "/></g></g></g><g fill="#ffffff" fill-opacity="1"><g transform="translate(102.852696, 244.167699)"><g><path d="M 21.265625 0.609375 C 17.660156 0.609375 14.414062 -0.1875 11.53125 -1.78125 C 8.65625 -3.382812 6.394531 -5.648438 4.75 -8.578125 C 3.113281 -11.503906 2.296875 -14.878906 2.296875 -18.703125 C 2.296875 -22.523438 3.140625 -25.898438 4.828125 -28.828125 C 6.515625 -31.753906 8.820312 -34.015625 11.75 -35.609375 C 14.675781 -37.210938 17.9375 -38.015625 21.53125 -38.015625 C 25.132812 -38.015625 28.398438 -37.210938 31.328125 -35.609375 C 34.253906 -34.015625 36.5625 -31.753906 38.25 -28.828125 C 39.9375 -25.898438 40.78125 -22.523438 40.78125 -18.703125 C 40.78125 -14.878906 39.910156 -11.503906 38.171875 -8.578125 C 36.441406 -5.648438 34.101562 -3.382812 31.15625 -1.78125 C 28.207031 -0.1875 24.910156 0.609375 21.265625 0.609375 Z M 21.265625 -7.625 C 22.972656 -7.625 24.582031 -8.039062 26.09375 -8.875 C 27.601562 -9.707031 28.804688 -10.957031 29.703125 -12.625 C 30.609375 -14.289062 31.0625 -16.316406 31.0625 -18.703125 C 31.0625 -22.253906 30.125 -24.988281 28.25 -26.90625 C 26.382812 -28.820312 24.101562 -29.78125 21.40625 -29.78125 C 18.695312 -29.78125 16.429688 -28.820312 14.609375 -26.90625 C 12.785156 -24.988281 11.875 -22.253906 11.875 -18.703125 C 11.875 -15.148438 12.765625 -12.414062 14.546875 -10.5 C 16.328125 -8.582031 18.566406 -7.625 21.265625 -7.625 Z M 21.265625 -7.625 "/></g></g></g><g fill="#ffffff" fill-opacity="1"><g transform="translate(144.237013, 244.167699)"><g><path d="M 21.265625 0.609375 C 17.660156 0.609375 14.414062 -0.1875 11.53125 -1.78125 C 8.65625 -3.382812 6.394531 -5.648438 4.75 -8.578125 C 3.113281 -11.503906 2.296875 -14.878906 2.296875 -18.703125 C 2.296875 -22.523438 3.140625 -25.898438 4.828125 -28.828125 C 6.515625 -31.753906 8.820312 -34.015625 11.75 -35.609375 C 14.675781 -37.210938 17.9375 -38.015625 21.53125 -38.015625 C 25.132812 -38.015625 28.398438 -37.210938 31.328125 -35.609375 C 34.253906 -34.015625 36.5625 -31.753906 38.25 -28.828125 C 39.9375 -25.898438 40.78125 -22.523438 40.78125 -18.703125 C 40.78125 -14.878906 39.910156 -11.503906 38.171875 -8.578125 C 36.441406 -5.648438 34.101562 -3.382812 31.15625 -1.78125 C 28.207031 -0.1875 24.910156 0.609375 21.265625 0.609375 Z M 21.265625 -7.625 C 22.972656 -7.625 24.582031 -8.039062 26.09375 -8.875 C 27.601562 -9.707031 28.804688 -10.957031 29.703125 -12.625 C 30.609375 -14.289062 31.0625 -16.316406 31.0625 -18.703125 C 31.0625 -22.253906 30.125 -24.988281 28.25 -26.90625 C 26.382812 -28.820312 24.101562 -29.78125 21.40625 -29.78125 C 18.695312 -29.78125 16.429688 -28.820312 14.609375 -26.90625 C 12.785156 -24.988281 11.875 -22.253906 11.875 -18.703125 C 11.875 -15.148438 12.765625 -12.414062 14.546875 -10.5 C 16.328125 -8.582031 18.566406 -7.625 21.265625 -7.625 Z M 21.265625 -7.625 "/></g></g></g><g fill="#ffffff" fill-opacity="1"><g transform="translate(185.621329, 244.167699)"><g><path d="M 26.796875 0 L 14.109375 -15.9375 L 14.109375 0 L 4.65625 0 L 4.65625 -49.96875 L 14.109375 -49.96875 L 14.109375 -21.53125 L 26.671875 -37.40625 L 38.953125 -37.40625 L 22.484375 -18.640625 L 39.09375 0 Z M 26.796875 0 "/></g></g></g><g fill="#ffffff" fill-opacity="1"><g transform="translate(223.360004, 244.167699)"><g><path d="M 18.96875 0.609375 C 15.90625 0.609375 13.160156 0.0546875 10.734375 -1.046875 C 8.304688 -2.148438 6.378906 -3.644531 4.953125 -5.53125 C 3.535156 -7.425781 2.765625 -9.519531 2.640625 -11.8125 L 12.15625 -11.8125 C 12.332031 -10.375 13.039062 -9.179688 14.28125 -8.234375 C 15.519531 -7.285156 17.0625 -6.8125 18.90625 -6.8125 C 20.707031 -6.8125 22.113281 -7.171875 23.125 -7.890625 C 24.132812 -8.617188 24.640625 -9.546875 24.640625 -10.671875 C 24.640625 -11.878906 24.019531 -12.785156 22.78125 -13.390625 C 21.550781 -14.003906 19.582031 -14.671875 16.875 -15.390625 C 14.082031 -16.066406 11.796875 -16.765625 10.015625 -17.484375 C 8.242188 -18.203125 6.71875 -19.300781 5.4375 -20.78125 C 4.15625 -22.269531 3.515625 -24.273438 3.515625 -26.796875 C 3.515625 -28.867188 4.109375 -30.757812 5.296875 -32.46875 C 6.492188 -34.1875 8.203125 -35.539062 10.421875 -36.53125 C 12.648438 -37.519531 15.273438 -38.015625 18.296875 -38.015625 C 22.753906 -38.015625 26.3125 -36.898438 28.96875 -34.671875 C 31.625 -32.441406 33.085938 -29.4375 33.359375 -25.65625 L 24.3125 -25.65625 C 24.175781 -27.144531 23.554688 -28.328125 22.453125 -29.203125 C 21.347656 -30.078125 19.875 -30.515625 18.03125 -30.515625 C 16.320312 -30.515625 15.003906 -30.195312 14.078125 -29.5625 C 13.148438 -28.9375 12.6875 -28.0625 12.6875 -26.9375 C 12.6875 -25.675781 13.316406 -24.71875 14.578125 -24.0625 C 15.835938 -23.414062 17.796875 -22.753906 20.453125 -22.078125 C 23.160156 -21.398438 25.390625 -20.703125 27.140625 -19.984375 C 28.898438 -19.265625 30.421875 -18.148438 31.703125 -16.640625 C 32.984375 -15.128906 33.644531 -13.140625 33.6875 -10.671875 C 33.6875 -8.503906 33.085938 -6.566406 31.890625 -4.859375 C 30.703125 -3.148438 28.992188 -1.8125 26.765625 -0.84375 C 24.535156 0.125 21.9375 0.609375 18.96875 0.609375 Z M 18.96875 0.609375 "/></g></g></g></svg>