<svg xmlns="http://www.w3.org/2000/svg" xmlns:xlink="http://www.w3.org/1999/xlink" width="500" zoomAndPan="magnify" viewBox="0 0 375 374.999991" height="500" preserveAspectRatio="xMidYMid meet" version="1.0"><defs><g/><clipPath id="0d0b43463b"><path d="M 0 65.980469 L 66.070312 65.980469 L 66.070312 259.054688 L 0 259.054688 Z M 0 65.980469 " clip-rule="nonzero"/></clipPath><clipPath id="a5e947bdcf"><path d="M 155.550781 65.980469 L 221.621094 65.980469 L 221.621094 259.054688 L 155.550781 259.054688 Z M 155.550781 65.980469 " clip-rule="nonzero"/></clipPath><clipPath id="479bfbd9d3"><path d="M 78.128906 94.945312 L 144.199219 94.945312 L 144.199219 259.054688 L 78.128906 259.054688 Z M 78.128906 94.945312 " clip-rule="nonzero"/></clipPath><clipPath id="d617345df9"><path d="M 78.128906 94.945312 L 144.128906 94.945312 L 144.128906 259.195312 L 78.128906 259.195312 Z M 78.128906 94.945312 " clip-rule="nonzero"/></clipPath><clipPath id="8210254bb2"><path d="M 233.675781 65.980469 L 299.746094 65.980469 L 299.746094 259.054688 L 233.675781 259.054688 Z M 233.675781 65.980469 " clip-rule="nonzero"/></clipPath><clipPath id="5317b4f6c9"><path d="M 233.675781 65.980469 L 299.675781 65.980469 L 299.675781 258.730469 L 233.675781 258.730469 Z M 233.675781 65.980469 " clip-rule="nonzero"/></clipPath><clipPath id="b1f16a5f6d"><path d="M 308.929688 110.917969 L 375 110.917969 L 375 259.054688 L 308.929688 259.054688 Z M 308.929688 110.917969 " clip-rule="nonzero"/></clipPath></defs><g clip-path="url(#0d0b43463b)"><path fill="#000000" d="M 0 65.980469 L 66.070312 65.980469 L 66.070312 259.054688 L 0 259.054688 Z M 0 65.980469 " fill-opacity="1" fill-rule="nonzero"/></g><g clip-path="url(#a5e947bdcf)"><path fill="#000000" d="M 155.550781 65.980469 L 221.621094 65.980469 L 221.621094 259.054688 L 155.550781 259.054688 Z M 155.550781 65.980469 " fill-opacity="1" fill-rule="nonzero"/></g><g clip-path="url(#479bfbd9d3)"><path fill="#ffffff" d="M 78.128906 94.945312 L 144.199219 94.945312 L 144.199219 259.054688 L 78.128906 259.054688 Z M 78.128906 94.945312 " fill-opacity="1" fill-rule="nonzero"/></g><g clip-path="url(#d617345df9)"><path stroke-linecap="butt" transform="matrix(0.749202, 0, 0, 0.750643, 78.127178, 94.946156)" fill="none" stroke-linejoin="miter" d="M 0.0023071 -0.00112392 L 88.096064 -0.00112392 L 88.096064 218.811384 L 0.0023071 218.811384 Z M 0.0023071 -0.00112392 " stroke="#000000" stroke-width="2" stroke-opacity="1" stroke-miterlimit="4"/></g><g clip-path="url(#8210254bb2)"><path fill="#ffffff" d="M 233.675781 65.980469 L 299.746094 65.980469 L 299.746094 259.054688 L 233.675781 259.054688 Z M 233.675781 65.980469 " fill-opacity="1" fill-rule="nonzero"/></g><g clip-path="url(#5317b4f6c9)"><path stroke-linecap="butt" transform="matrix(0.749202, 0, 0, 0.748771, 233.677432, 65.980059)" fill="none" stroke-linejoin="miter" d="M -0.00220275 0.000547407 L 88.091555 0.000547407 L 88.091555 257.422448 L -0.00220275 257.422448 Z M -0.00220275 0.000547407 " stroke="#000000" stroke-width="2" stroke-opacity="1" stroke-miterlimit="4"/></g><g fill="#000000" fill-opacity="1"><g transform="translate(67.348243, 298.71822)"><g><path d="M 1.765625 0 L 4.144531 0 L 4.144531 -8.171875 L 10.261719 -8.171875 C 14.667969 -8.171875 17.785156 -10.761719 17.785156 -14.433594 C 17.785156 -18.109375 14.699219 -20.726562 10.261719 -20.726562 L 1.765625 -20.726562 Z M 4.144531 -10.378906 L 4.144531 -18.550781 L 10.261719 -18.550781 C 13.257812 -18.550781 15.347656 -16.84375 15.347656 -14.433594 C 15.347656 -12.054688 13.230469 -10.378906 10.261719 -10.378906 Z M 4.144531 -10.378906 "/></g></g></g><g fill="#000000" fill-opacity="1"><g transform="translate(100.298712, 298.71822)"><g><path d="M 7.90625 -15.464844 C 6.027344 -15.464844 4.4375 -14.316406 3.617188 -12.523438 L 3.585938 -12.523438 L 3.378906 -14.847656 L 1.46875 -14.847656 L 1.46875 0 L 3.703125 0 L 3.703125 -8.171875 C 3.703125 -11.40625 5.203125 -13.375 7.585938 -13.375 C 9.203125 -13.375 10.289062 -12.257812 10.523438 -10.171875 L 12.464844 -10.820312 C 12.171875 -13.789062 10.4375 -15.464844 7.90625 -15.464844 Z M 7.90625 -15.464844 "/></g></g></g><g fill="#000000" fill-opacity="1"><g transform="translate(127.93105, 298.71822)"><g><path d="M 8.789062 0.589844 C 13.582031 0.589844 16.726562 -2.585938 16.726562 -7.410156 C 16.726562 -12.257812 13.582031 -15.433594 8.789062 -15.433594 C 4.027344 -15.433594 0.882812 -12.257812 0.882812 -7.410156 C 0.882812 -2.585938 4.027344 0.589844 8.789062 0.589844 Z M 8.789062 -1.441406 C 5.351562 -1.441406 3.117188 -3.792969 3.117188 -7.410156 C 3.117188 -11.023438 5.351562 -13.375 8.789062 -13.375 C 12.230469 -13.375 14.464844 -11.023438 14.464844 -7.410156 C 14.464844 -3.792969 12.230469 -1.441406 8.789062 -1.441406 Z M 8.789062 -1.441406 "/></g></g></g><g fill="#000000" fill-opacity="1"><g transform="translate(160.117596, 298.71822)"><g><path d="M 2.851562 -17.726562 C 3.820312 -17.726562 4.527344 -18.402344 4.527344 -19.375 C 4.527344 -20.3125 3.820312 -20.992188 2.851562 -20.992188 C 1.882812 -20.992188 1.207031 -20.3125 1.207031 -19.375 C 1.207031 -18.402344 1.882812 -17.726562 2.851562 -17.726562 Z M -0.558594 6.761719 C 2.265625 6.761719 3.96875 5.085938 3.96875 2.324219 L 3.96875 -14.847656 L 1.707031 -14.847656 L 1.707031 2.117188 C 1.707031 3.792969 0.792969 4.792969 -0.734375 4.792969 C -1.234375 4.792969 -1.851562 4.703125 -2.410156 4.496094 L -2.675781 6.351562 C -2.058594 6.644531 -1.265625 6.761719 -0.558594 6.761719 Z M -0.558594 6.761719 "/></g></g></g><g fill="#000000" fill-opacity="1"><g transform="translate(180.404425, 298.71822)"><g><path d="M 9.085938 0.589844 C 12.40625 0.589844 15.199219 -1.085938 16.167969 -3.46875 L 14.230469 -4.261719 C 13.40625 -2.644531 11.4375 -1.441406 9.113281 -1.441406 C 5.910156 -1.441406 3.527344 -3.585938 3.203125 -6.671875 L 15.699219 -6.671875 C 15.726562 -6.96875 15.726562 -7.289062 15.726562 -7.554688 C 15.667969 -12.140625 12.816406 -15.433594 8.464844 -15.433594 C 4.058594 -15.433594 0.882812 -12.140625 0.882812 -7.585938 C 0.882812 -2.851562 4.351562 0.589844 9.085938 0.589844 Z M 3.234375 -8.644531 C 3.644531 -11.464844 5.675781 -13.375 8.4375 -13.375 C 11.140625 -13.375 13.054688 -11.671875 13.347656 -8.644531 Z M 3.234375 -8.644531 "/></g></g></g><g fill="#000000" fill-opacity="1"><g transform="translate(211.856405, 298.71822)"><g><path d="M 8.730469 0.589844 C 12.554688 0.589844 15.699219 -1.882812 16.257812 -5.292969 L 14.082031 -5.734375 C 13.671875 -3.175781 11.4375 -1.441406 8.730469 -1.441406 C 5.496094 -1.441406 3.117188 -3.851562 3.117188 -7.410156 C 3.117188 -10.964844 5.320312 -13.375 8.289062 -13.375 C 10.464844 -13.375 12.347656 -11.996094 12.933594 -9.847656 L 15.109375 -10.347656 C 14.375 -13.347656 11.640625 -15.433594 8.289062 -15.433594 C 3.9375 -15.433594 0.882812 -12.113281 0.882812 -7.410156 C 0.882812 -2.734375 4.117188 0.589844 8.730469 0.589844 Z M 8.730469 0.589844 "/></g></g></g><g fill="#000000" fill-opacity="1"><g transform="translate(243.278999, 298.71822)"><g><path d="M 7.9375 0.589844 C 10.464844 0.589844 12.730469 -1 13.140625 -3.585938 L 11.320312 -4.351562 C 11.023438 -2.441406 9.644531 -1.351562 8.144531 -1.351562 C 6.527344 -1.351562 5.496094 -2.558594 5.496094 -4.234375 L 5.496094 -12.992188 L 12.140625 -12.992188 L 12.140625 -14.847656 L 5.496094 -14.847656 L 5.496094 -19.785156 L 3.261719 -19.257812 L 3.261719 -14.847656 L 0 -14.847656 L 0 -12.992188 L 3.261719 -12.992188 L 3.261719 -4 C 3.261719 -1.292969 5.144531 0.589844 7.9375 0.589844 Z M 7.9375 0.589844 "/></g></g></g><g fill="#000000" fill-opacity="1"><g transform="translate(271.117011, 298.71822)"><g/></g></g><g fill="#000000" fill-opacity="1"><g transform="translate(293.695637, 298.71822)"><g><path d="M 0.648438 0 L 13.613281 0 L 13.613281 -2.175781 L 8.964844 -2.175781 L 8.964844 -20.726562 L 6.703125 -20.726562 C 5.761719 -18.960938 4 -17.757812 1.382812 -17.167969 L 2.117188 -14.757812 C 4.058594 -15.375 5.675781 -16.199219 6.46875 -17.433594 L 6.496094 -17.433594 L 6.496094 -2.175781 L 0.648438 -2.175781 Z M 0.648438 0 "/></g></g></g><g fill="#ffffff" fill-opacity="1"><g transform="translate(15.16771, 244.448615)"><g><path d="M 2.96875 -40.046875 L 20.140625 -40.046875 C 22.578125 -40.046875 24.648438 -39.585938 26.359375 -38.671875 C 28.078125 -37.753906 29.359375 -36.519531 30.203125 -34.96875 C 31.046875 -33.425781 31.46875 -31.722656 31.46875 -29.859375 C 31.46875 -27.609375 30.894531 -25.765625 29.75 -24.328125 C 28.601562 -22.898438 27.265625 -21.976562 25.734375 -21.5625 L 25.734375 -21.171875 C 26.878906 -21.015625 28.070312 -20.570312 29.3125 -19.84375 C 30.550781 -19.125 31.609375 -18.066406 32.484375 -16.671875 C 33.367188 -15.285156 33.8125 -13.597656 33.8125 -11.609375 C 33.8125 -9.703125 33.378906 -7.851562 32.515625 -6.0625 C 31.660156 -4.269531 30.296875 -2.800781 28.421875 -1.65625 C 26.554688 -0.507812 24.234375 0.0625 21.453125 0.0625 L 2.96875 0.0625 Z M 17.453125 -23.734375 C 19.015625 -23.734375 20.347656 -24.09375 21.453125 -24.8125 C 22.554688 -25.539062 23.109375 -26.75 23.109375 -28.4375 C 23.109375 -30.070312 22.546875 -31.238281 21.421875 -31.9375 C 20.296875 -32.644531 18.972656 -33 17.453125 -33 L 11.734375 -33 L 11.734375 -23.734375 Z M 19.453125 -7.03125 C 21.015625 -7.03125 22.382812 -7.410156 23.5625 -8.171875 C 24.75 -8.941406 25.34375 -10.28125 25.34375 -12.1875 C 25.34375 -14.050781 24.738281 -15.382812 23.53125 -16.1875 C 22.332031 -16.988281 20.972656 -17.390625 19.453125 -17.390625 L 11.734375 -17.390625 L 11.734375 -7.03125 Z M 19.453125 -7.03125 "/></g></g></g><g fill="#000000" fill-opacity="1"><g transform="translate(90.143794, 244.448615)"><g><path d="M 20.65625 0.515625 C 16.644531 0.515625 13.25 -0.40625 10.46875 -2.25 C 7.6875 -4.101562 5.597656 -6.582031 4.203125 -9.6875 C 2.804688 -12.800781 2.109375 -16.242188 2.109375 -20.015625 C 2.109375 -23.796875 2.8125 -27.269531 4.21875 -30.4375 C 5.632812 -33.601562 7.734375 -36.128906 10.515625 -38.015625 C 13.304688 -39.898438 16.6875 -40.84375 20.65625 -40.84375 C 24.539062 -40.84375 27.863281 -39.90625 30.625 -38.03125 C 33.394531 -36.164062 35.472656 -33.640625 36.859375 -30.453125 C 38.253906 -27.273438 38.953125 -23.78125 38.953125 -19.96875 C 38.953125 -16.15625 38.253906 -12.691406 36.859375 -9.578125 C 35.472656 -6.472656 33.394531 -4.015625 30.625 -2.203125 C 27.863281 -0.390625 24.539062 0.515625 20.65625 0.515625 Z M 20.59375 -7.4375 C 23.414062 -7.4375 25.597656 -8.632812 27.140625 -11.03125 C 28.679688 -13.4375 29.453125 -16.453125 29.453125 -20.078125 C 29.453125 -23.660156 28.691406 -26.691406 27.171875 -29.171875 C 25.648438 -31.648438 23.457031 -32.890625 20.59375 -32.890625 C 18.644531 -32.890625 16.992188 -32.296875 15.640625 -31.109375 C 14.285156 -29.929688 13.273438 -28.367188 12.609375 -26.421875 C 11.941406 -24.484375 11.609375 -22.367188 11.609375 -20.078125 C 11.609375 -16.535156 12.378906 -13.539062 13.921875 -11.09375 C 15.472656 -8.65625 17.695312 -7.4375 20.59375 -7.4375 Z M 20.59375 -7.4375 "/></g></g></g><g fill="#ffffff" fill-opacity="1"><g transform="translate(168.269722, 244.448615)"><g><path d="M 20.65625 0.515625 C 16.644531 0.515625 13.25 -0.40625 10.46875 -2.25 C 7.6875 -4.101562 5.597656 -6.582031 4.203125 -9.6875 C 2.804688 -12.800781 2.109375 -16.242188 2.109375 -20.015625 C 2.109375 -23.796875 2.8125 -27.269531 4.21875 -30.4375 C 5.632812 -33.601562 7.734375 -36.128906 10.515625 -38.015625 C 13.304688 -39.898438 16.6875 -40.84375 20.65625 -40.84375 C 24.539062 -40.84375 27.863281 -39.90625 30.625 -38.03125 C 33.394531 -36.164062 35.472656 -33.640625 36.859375 -30.453125 C 38.253906 -27.273438 38.953125 -23.78125 38.953125 -19.96875 C 38.953125 -16.15625 38.253906 -12.691406 36.859375 -9.578125 C 35.472656 -6.472656 33.394531 -4.015625 30.625 -2.203125 C 27.863281 -0.390625 24.539062 0.515625 20.65625 0.515625 Z M 20.59375 -7.4375 C 23.414062 -7.4375 25.597656 -8.632812 27.140625 -11.03125 C 28.679688 -13.4375 29.453125 -16.453125 29.453125 -20.078125 C 29.453125 -23.660156 28.691406 -26.691406 27.171875 -29.171875 C 25.648438 -31.648438 23.457031 -32.890625 20.59375 -32.890625 C 18.644531 -32.890625 16.992188 -32.296875 15.640625 -31.109375 C 14.285156 -29.929688 13.273438 -28.367188 12.609375 -26.421875 C 11.941406 -24.484375 11.609375 -22.367188 11.609375 -20.078125 C 11.609375 -16.535156 12.378906 -13.539062 13.921875 -11.09375 C 15.472656 -8.65625 17.695312 -7.4375 20.59375 -7.4375 Z M 20.59375 -7.4375 "/></g></g></g><g fill="#000000" fill-opacity="1"><g transform="translate(247.737074, 244.448615)"><g><path d="M 2.921875 -40.046875 L 11.734375 -40.046875 L 11.734375 -24.3125 L 12.015625 -24.3125 L 25.390625 -40.046875 L 35.515625 -40.046875 L 21.171875 -23.109375 L 35.515625 0 L 25.515625 0 L 15.609375 -16.984375 L 11.734375 -12.703125 L 11.734375 0 L 2.921875 0 Z M 2.921875 -40.046875 "/></g></g></g><g clip-path="url(#b1f16a5f6d)"><path fill="#000000" d="M 308.929688 110.917969 L 375 110.917969 L 375 259.054688 L 308.929688 259.054688 Z M 308.929688 110.917969 " fill-opacity="1" fill-rule="nonzero"/></g><g fill="#ffffff" fill-opacity="1"><g transform="translate(324.639063, 244.448615)"><g><path d="M 17.796875 0.515625 C 14.585938 0.515625 11.8125 -0.113281 9.46875 -1.375 C 7.125 -2.632812 5.347656 -4.28125 4.140625 -6.3125 C 2.941406 -8.351562 2.34375 -10.484375 2.34375 -12.703125 L 2.34375 -13.15625 L 12.125 -13.15625 L 12.125 -12.75 C 12.125 -11.382812 12.617188 -10.128906 13.609375 -8.984375 C 14.609375 -7.835938 16.0625 -7.265625 17.96875 -7.265625 C 19.601562 -7.265625 20.914062 -7.679688 21.90625 -8.515625 C 22.894531 -9.359375 23.390625 -10.46875 23.390625 -11.84375 C 23.390625 -13.0625 22.953125 -14.039062 22.078125 -14.78125 C 21.203125 -15.53125 20.132812 -16.035156 18.875 -16.296875 L 14.296875 -17.21875 C 11.628906 -17.832031 9.128906 -18.976562 6.796875 -20.65625 C 4.472656 -22.332031 3.3125 -25.078125 3.3125 -28.890625 C 3.3125 -31.367188 3.910156 -33.503906 5.109375 -35.296875 C 6.316406 -37.085938 7.988281 -38.457031 10.125 -39.40625 C 12.257812 -40.363281 14.679688 -40.84375 17.390625 -40.84375 C 20.472656 -40.84375 23.140625 -40.25 25.390625 -39.0625 C 27.640625 -37.882812 29.335938 -36.351562 30.484375 -34.46875 C 31.628906 -32.582031 32.203125 -30.609375 32.203125 -28.546875 L 32.203125 -28.265625 L 22.421875 -28.265625 L 22.421875 -28.4375 C 22.421875 -29.65625 21.988281 -30.785156 21.125 -31.828125 C 20.269531 -32.878906 18.910156 -33.40625 17.046875 -33.40625 C 15.597656 -33.40625 14.441406 -33.003906 13.578125 -32.203125 C 12.722656 -31.398438 12.296875 -30.351562 12.296875 -29.0625 C 12.296875 -27.800781 12.769531 -26.804688 13.71875 -26.078125 C 14.675781 -25.359375 15.820312 -24.863281 17.15625 -24.59375 L 21.796875 -23.5625 C 24.804688 -22.914062 27.378906 -21.695312 29.515625 -19.90625 C 31.648438 -18.113281 32.71875 -15.5 32.71875 -12.0625 C 32.71875 -9.550781 32.066406 -7.34375 30.765625 -5.4375 C 29.472656 -3.53125 27.691406 -2.0625 25.421875 -1.03125 C 23.148438 0 20.609375 0.515625 17.796875 0.515625 Z M 17.796875 0.515625 "/></g></g></g></svg>