<svg xmlns="http://www.w3.org/2000/svg" xmlns:xlink="http://www.w3.org/1999/xlink" width="500" zoomAndPan="magnify" viewBox="0 0 375 374.999991" height="500" preserveAspectRatio="xMidYMid meet" version="1.0"><path fill="#000000" d="M 187.511719 375.011719 C 84.121094 375.011719 0 290.902344 0 187.511719 C 0 84.121094 84.121094 0 187.511719 0 C 290.902344 0 375.023438 84.121094 375.023438 187.511719 C 375.023438 290.902344 290.902344 375.011719 187.511719 375.011719 Z M 187.511719 15.621094 C 92.738281 15.621094 15.621094 92.726562 15.621094 187.511719 C 15.621094 282.296875 92.726562 359.402344 187.511719 359.402344 C 282.296875 359.402344 359.402344 282.296875 359.402344 187.511719 C 359.402344 92.726562 282.285156 15.621094 187.511719 15.621094 Z M 187.511719 15.621094 " fill-opacity="1" fill-rule="nonzero"/><path fill="#000000" d="M 188.417969 242.199219 C 141.523438 242.199219 103.367188 203.652344 103.367188 156.265625 C 103.367188 108.878906 141.511719 70.320312 188.417969 70.320312 C 235.308594 70.320312 273.457031 108.878906 273.457031 156.265625 C 273.457031 203.652344 235.296875 242.199219 188.417969 242.199219 Z M 188.417969 85.945312 C 150.140625 85.945312 119 117.484375 119 156.265625 C 119 195.035156 150.140625 226.574219 188.417969 226.574219 C 226.691406 226.574219 257.832031 195.035156 257.832031 156.265625 C 257.820312 117.484375 226.691406 85.945312 188.417969 85.945312 Z M 188.417969 85.945312 " fill-opacity="1" fill-rule="nonzero"/><path fill="#000000" d="M 305.148438 328.144531 C 302.117188 328.144531 299.234375 326.367188 297.964844 323.40625 C 279.144531 279.511719 234.816406 250.015625 187.652344 250.015625 C 140.5 250.015625 96.171875 279.511719 77.351562 323.40625 C 75.648438 327.367188 71.050781 329.199219 67.089844 327.507812 C 63.125 325.804688 61.292969 321.207031 62.984375 317.246094 C 84.238281 267.683594 134.339844 234.394531 187.652344 234.394531 C 240.976562 234.394531 291.089844 267.695312 312.332031 317.246094 C 314.035156 321.207031 312.191406 325.804688 308.230469 327.507812 C 307.21875 327.941406 306.171875 328.144531 305.148438 328.144531 Z M 305.148438 328.144531 " fill-opacity="1" fill-rule="nonzero"/></svg>