<svg xmlns="http://www.w3.org/2000/svg" xmlns:xlink="http://www.w3.org/1999/xlink" width="500" zoomAndPan="magnify" viewBox="0 0 375 374.999991" height="500" preserveAspectRatio="xMidYMid meet" version="1.0"><defs><clipPath id="fc95e9197f"><path d="M 271.230469 132.847656 L 370.519531 132.847656 L 370.519531 233.839844 L 271.230469 233.839844 Z M 271.230469 132.847656 " clip-rule="nonzero"/></clipPath><clipPath id="c6eb4a8408"><path d="M 105.257812 184.625 L 276.703125 184.625 L 276.703125 328.25 L 105.257812 328.25 Z M 105.257812 184.625 " clip-rule="nonzero"/></clipPath></defs><path fill="#000000" d="M 131.410156 62.792969 C 196.542969 53.648438 201.808594 170.4375 141.539062 167.609375 C 93.085938 165.339844 74.800781 70.738281 131.410156 62.792969 " fill-opacity="1" fill-rule="evenodd"/><path fill="#000000" d="M 236.097656 62.792969 C 307.835938 47.113281 299.460938 174.707031 232.726562 167.609375 C 179.90625 161.988281 190.195312 72.824219 236.097656 62.792969 " fill-opacity="1" fill-rule="evenodd"/><path fill="#000000" d="M 107.773438 203.113281 C 82.261719 258.867188 4.519531 219.480469 13.210938 164.226562 C 22.363281 106.027344 126.324219 135.699219 107.773438 203.113281 " fill-opacity="1" fill-rule="evenodd"/><g clip-path="url(#fc95e9197f)"><path fill="#000000" d="M 318.84375 133.796875 C 335.625 130.542969 356.601562 136.515625 364.433594 150.699219 C 386.035156 189.84375 346.21875 237.679688 307.019531 233.539062 C 285.492188 231.277344 273.058594 212.929688 271.5625 196.351562 C 268.359375 160.839844 293.671875 138.675781 318.84375 133.796875 " fill-opacity="1" fill-rule="evenodd"/></g><g clip-path="url(#c6eb4a8408)"><path fill="#000000" d="M 173.625 186.203125 C 232.789062 175.988281 287.101562 218.671875 274.941406 291.019531 C 272.417969 305.996094 259.542969 327.167969 241.164062 328.214844 C 226.328125 329.0625 208.980469 314.601562 190.511719 314.691406 C 167.578125 314.800781 149.5 335.160156 128.03125 324.835938 C 110 316.15625 102.710938 281.058594 106.085938 255.523438 C 110.933594 218.707031 137.972656 192.359375 173.625 186.203125 " fill-opacity="1" fill-rule="evenodd"/></g></svg>