<svg xmlns="http://www.w3.org/2000/svg" xmlns:xlink="http://www.w3.org/1999/xlink" width="500" zoomAndPan="magnify" viewBox="0 0 375 374.999991" height="500" preserveAspectRatio="xMidYMid meet" version="1.0"><path fill="#000000" d="M 169.261719 144.300781 C 147.996094 107.132812 0.101562 152.0625 5.023438 255.679688 C 5.707031 270.082031 4.8125 286.902344 15.515625 297.710938 C 41.523438 323.988281 128.023438 321.886719 161.058594 320.273438 C 195.566406 318.589844 306.578125 325.5 320.214844 283.558594 C 325.429688 267.523438 316.578125 253.257812 319.320312 238.433594 C 321.882812 224.585938 349.441406 221.8125 350.433594 195.667969 C 351.386719 170.613281 327.617188 153.203125 319.6875 130.941406 C 315.554688 119.347656 316.117188 57.515625 312.347656 55.546875 C 301.871094 50.078125 273.875 97.597656 244.605469 96.882812 C 212.230469 96.09375 214.316406 37.496094 201.003906 40.828125 C 184.066406 45.066406 174.457031 125.824219 169.261719 144.300781 Z M 169.261719 144.300781 " fill-opacity="1" fill-rule="evenodd"/><path fill="#ffffff" d="M 201.390625 186.308594 C 192.050781 187.730469 182.679688 190.460938 173.527344 192.789062 C 172.3125 193.097656 171.574219 194.335938 171.882812 195.550781 C 172.191406 196.769531 173.429688 197.507812 174.648438 197.195312 C 183.65625 194.90625 192.878906 192.203125 202.078125 190.804688 C 203.316406 190.617188 204.167969 189.457031 203.980469 188.214844 C 203.792969 186.976562 202.632812 186.121094 201.390625 186.308594 Z M 201.390625 186.308594 " fill-opacity="1" fill-rule="evenodd"/><path fill="#ffffff" d="M 204.363281 204.632812 C 205.046875 204.363281 205.585938 203.761719 205.753906 202.988281 C 205.988281 201.859375 205.539062 201.230469 205.292969 200.925781 C 204.75 200.25 203.957031 199.820312 202.816406 200.160156 C 202.570312 200.238281 202.140625 200.421875 201.695312 200.835938 C 201.316406 201.1875 200.671875 201.992188 200.320312 202.308594 C 198.367188 204.042969 196.320312 205.675781 194.320312 207.351562 C 189.027344 211.78125 183.738281 216.207031 178.304688 220.464844 C 177.320312 221.242188 177.144531 222.671875 177.917969 223.660156 C 178.691406 224.648438 180.121094 224.820312 181.109375 224.046875 C 186.582031 219.753906 191.90625 215.300781 197.234375 210.835938 C 199.269531 209.132812 201.351562 207.472656 203.335938 205.707031 C 203.550781 205.515625 204.023438 205.003906 204.363281 204.632812 Z M 201.265625 202.296875 C 201.25 202.445312 201.25 202.582031 201.265625 202.710938 C 201.25 202.574219 201.253906 202.433594 201.265625 202.296875 Z M 201.273438 202.222656 L 201.269531 202.265625 L 201.28125 202.1875 Z M 201.273438 202.222656 " fill-opacity="1" fill-rule="evenodd"/><path fill="#ffffff" d="M 343.183594 178.832031 C 342.828125 178.734375 342.445312 178.71875 342.0625 178.808594 C 340.777344 179.105469 340.484375 180.019531 340.371094 180.441406 C 340.28125 180.777344 339.957031 182.664062 341.980469 183.226562 C 342.1875 183.285156 343.761719 183.511719 346.089844 183.851562 C 348.265625 184.171875 350.441406 184.507812 352.617188 184.832031 C 359.152344 185.808594 365.710938 186.695312 372.289062 187.355469 C 373.535156 187.480469 374.648438 186.566406 374.773438 185.320312 C 374.898438 184.070312 373.988281 182.953125 372.738281 182.832031 C 366.234375 182.179688 359.753906 181.300781 353.289062 180.332031 C 351.109375 180.007812 348.929688 179.671875 346.75 179.351562 C 345.097656 179.109375 343.542969 178.886719 343.183594 178.832031 Z M 344.550781 182.136719 C 344.25 182.675781 343.730469 183.089844 343.082031 183.238281 C 343.980469 183.03125 344.363281 182.496094 344.550781 182.136719 Z M 344.710938 180.25 C 344.894531 180.726562 344.894531 181.1875 344.761719 181.625 C 344.859375 181.273438 344.875 180.894531 344.789062 180.511719 C 344.765625 180.421875 344.742188 180.335938 344.710938 180.25 Z M 344.710938 180.25 " fill-opacity="1" fill-rule="evenodd"/><path fill="#ffffff" d="M 341.128906 197.804688 C 349.699219 202.898438 357.4375 209.265625 366.34375 213.871094 C 367.457031 214.449219 368.828125 214.011719 369.40625 212.898438 C 369.984375 211.78125 369.546875 210.410156 368.429688 209.832031 C 359.601562 205.261719 351.933594 198.9375 343.4375 193.886719 L 343.28125 193.804688 C 342.988281 193.53125 342.617188 193.332031 342.195312 193.246094 C 340.964844 192.996094 339.765625 193.792969 339.515625 195.023438 C 339.417969 195.503906 339.4375 196.101562 339.832031 196.726562 C 339.945312 196.902344 340.132812 197.140625 340.414062 197.359375 C 340.589844 197.496094 340.984375 197.722656 341.128906 197.804688 Z M 341.128906 197.804688 " fill-opacity="1" fill-rule="evenodd"/><path fill="#ffffff" d="M 231.71875 124.851562 C 227.9375 124.222656 222.554688 126.429688 219.136719 127.695312 C 190.796875 138.1875 215.121094 172.398438 235.667969 172.003906 C 262.519531 171.484375 258.75 119.441406 231.71875 124.851562 Z M 231.71875 124.851562 " fill-opacity="1" fill-rule="evenodd"/><path fill="#000000" d="M 237.5 130.601562 C 234.46875 129.253906 229.492188 129.800781 226.363281 130.039062 C 200.410156 132.019531 213.519531 164.621094 230.808594 168.910156 C 253.398438 174.511719 261.277344 132.363281 237.5 130.601562 Z M 237.5 130.601562 " fill-opacity="1" fill-rule="evenodd"/><path fill="#ffffff" d="M 295.253906 123.492188 C 262.789062 123.070312 275.136719 171.675781 301.894531 170.71875 C 328.453125 169.769531 318.757812 123.0625 295.253906 123.492188 Z M 295.253906 123.492188 " fill-opacity="1" fill-rule="evenodd"/><path fill="#000000" d="M 296.230469 128.027344 C 268.09375 127.683594 278.796875 167.613281 301.988281 166.828125 C 325.003906 166.046875 316.601562 127.675781 296.230469 128.027344 Z M 296.230469 128.027344 " fill-opacity="1" fill-rule="evenodd"/></svg>