<svg xmlns="http://www.w3.org/2000/svg" xmlns:xlink="http://www.w3.org/1999/xlink" width="50" zoomAndPan="magnify" viewBox="0 0 375 374.999991" height="50" preserveAspectRatio="xMidYMid meet" version="1.0"><defs><clipPath id="22e608d7a7"><path d="M 23.671875 0 L 351.421875 0 L 351.421875 375 L 23.671875 375 Z M 23.671875 0 " clip-rule="nonzero"/></clipPath></defs><g clip-path="url(#22e608d7a7)"><path fill="#000000" d="M 313.027344 0.25 L 62.066406 0.25 C 40.902344 0.25 23.671875 17.472656 23.671875 38.820312 L 23.671875 291.960938 C 23.671875 313.296875 40.902344 330.523438 62.066406 330.523438 L 274.449219 330.523438 L 264.515625 295.890625 L 288.496094 318.160156 L 311.15625 339.136719 L 351.421875 374.707031 L 351.421875 38.808594 C 351.421875 17.46875 334.1875 0.242188 313.023438 0.242188 Z M 240.742188 244.777344 C 240.742188 244.777344 233.996094 236.726562 228.375 229.609375 C 252.90625 222.683594 262.277344 207.324219 262.277344 207.324219 C 254.59375 212.382812 247.296875 215.941406 240.742188 218.371094 C 231.371094 222.300781 222.382812 224.925781 213.574219 226.421875 C 195.601562 229.800781 179.121094 228.855469 165.078125 226.242188 C 154.402344 224.183594 145.21875 221.1875 137.542969 218.191406 C 133.234375 216.503906 128.550781 214.441406 123.871094 211.816406 C 123.308594 211.445312 122.746094 211.253906 122.183594 210.882812 C 121.808594 210.703125 121.621094 210.511719 121.433594 210.320312 C 118.0625 208.453125 116.191406 207.148438 116.191406 207.148438 C 116.191406 207.148438 125.179688 222.121094 148.964844 229.238281 C 143.347656 236.355469 136.417969 244.777344 136.417969 244.777344 C 95.027344 243.46875 79.296875 216.3125 79.296875 216.3125 C 79.296875 156.027344 106.265625 107.160156 106.265625 107.160156 C 133.234375 86.9375 158.894531 87.5 158.894531 87.5 L 160.761719 89.746094 C 127.054688 99.480469 111.507812 114.273438 111.507812 114.273438 C 111.507812 114.273438 115.628906 112.027344 122.558594 108.84375 C 142.597656 100.042969 158.523438 97.609375 165.078125 97.050781 C 166.191406 96.859375 167.125 96.675781 168.253906 96.675781 C 179.6875 95.175781 192.605469 94.800781 206.085938 96.300781 C 223.882812 98.359375 242.984375 103.601562 262.457031 114.273438 C 262.457031 114.273438 247.667969 100.230469 215.828125 90.496094 L 218.453125 87.5 C 218.453125 87.5 244.109375 86.9375 271.070312 107.160156 C 271.070312 107.160156 298.046875 156.027344 298.046875 216.3125 C 298.046875 216.3125 282.121094 243.46875 240.742188 244.777344 Z M 153.644531 157.332031 C 142.972656 157.332031 134.542969 166.703125 134.542969 178.117188 C 134.542969 189.535156 143.160156 198.902344 153.644531 198.902344 C 164.324219 198.902344 172.746094 189.535156 172.746094 178.117188 C 172.9375 166.703125 164.324219 157.332031 153.644531 157.332031 M 222.011719 157.332031 C 211.335938 157.332031 202.910156 166.703125 202.910156 178.117188 C 202.910156 189.535156 211.511719 198.902344 222.011719 198.902344 C 232.675781 198.902344 241.113281 189.535156 241.113281 178.117188 C 241.113281 166.703125 232.675781 157.332031 222.011719 157.332031 " fill-opacity="1" fill-rule="nonzero"/></g></svg>