<svg xmlns="http://www.w3.org/2000/svg" xmlns:xlink="http://www.w3.org/1999/xlink" width="50" zoomAndPan="magnify" viewBox="0 0 375 374.999991" height="50" preserveAspectRatio="xMidYMid meet" version="1.0"><defs><clipPath id="d0608e72f7"><path d="M 0 48.046875 L 375 48.046875 L 375 327 L 0 327 Z M 0 48.046875 " clip-rule="nonzero"/></clipPath></defs><g clip-path="url(#d0608e72f7)"><path fill="#000000" d="M 364.546875 96.160156 C 361.078125 77.019531 344.5625 63.078125 325.390625 58.726562 C 296.707031 52.640625 243.621094 48.289062 186.179688 48.289062 C 128.777344 48.289062 74.839844 52.640625 46.121094 58.726562 C 26.984375 63.078125 10.433594 76.132812 6.96875 96.160156 C 3.464844 117.917969 0 148.378906 0 187.546875 C 0 226.714844 3.464844 257.175781 7.816406 278.933594 C 11.316406 298.074219 27.835938 312.015625 46.96875 316.367188 C 77.421875 322.453125 129.625 326.804688 187.066406 326.804688 C 244.503906 326.804688 296.707031 322.453125 327.160156 316.367188 C 346.292969 312.015625 362.8125 298.960938 366.3125 278.933594 C 369.78125 257.175781 374.128906 225.828125 375.011719 187.546875 C 373.246094 148.378906 368.894531 117.917969 364.546875 96.160156 Z M 139.210938 248.472656 L 139.210938 126.621094 L 245.351562 187.546875 Z M 139.210938 248.472656 " fill-opacity="1" fill-rule="nonzero"/></g></svg>